<svg id="Layer_1" data-name="Layer 1" xmlns="http://www.w3.org/2000/svg" viewBox="0 0 147.92 75.81"><defs><style>.cls-1{fill:#fff;}</style></defs><title>Artboard 1</title><path class="cls-1" d="M75.3,30.64V42.05A13.88,13.88,0,1,1,57.17,28.56l.51-.16a15.08,15.08,0,0,1,3.61-.4,2.37,2.37,0,0,1,2.47,2.25v.13a2.31,2.31,0,0,1-2.23,2.4h-.22a9.14,9.14,0,0,0-9.14,9.14c0,.17,0,.35,0,.52a9.21,9.21,0,0,0,18.34.49,18.22,18.22,0,0,0,0-2.09V22.23c0-1.2,0-2.4.09-3.59a2.34,2.34,0,0,1,4.6-.63,2.35,2.35,0,0,1,.09.53v12.1Z"/><path class="cls-1" d="M127.49,44.21h-4.65a2.26,2.26,0,0,1-2.4-2.06,2.29,2.29,0,0,1,1.92-2.61h.08a18.06,18.06,0,0,1,2.65-.08h4.2c.4,0,.51,0,.37-.49a9.19,9.19,0,0,0-14.9-3.9c-4.22,3.78-4.6,12.61,3.35,15.5a8.59,8.59,0,0,0,7.57-.85c.45-.26.87-.57,1.3-.84a2.37,2.37,0,1,1,2.77,3.85,13.39,13.39,0,0,1-7.28,3,14,14,0,1,1,12.32-16.16,9.31,9.31,0,0,1,.14,2.58,2.17,2.17,0,0,1-2,2,35.6,35.6,0,0,1-4,.08h-1.44Z"/><path class="cls-1" d="M97.78,44.21h-4.7a2.35,2.35,0,0,1-.37-4.67,17.41,17.41,0,0,1,2.7-.09h4.25c.34,0,.43-.07.32-.42a9.2,9.2,0,0,0-11.61-5.88,9.31,9.31,0,0,0-3.39,2c-3.48,3.31-3.67,9-1.08,12.21a9.22,9.22,0,0,0,12.51,2.1c.36-.23.71-.49,1.09-.7a2.32,2.32,0,0,1,3,.61,2.34,2.34,0,0,1-.34,3.24,13.18,13.18,0,0,1-7.67,3.15,13.72,13.72,0,0,1-11-3.94A13.26,13.26,0,0,1,77.35,43a13.51,13.51,0,0,1,4.06-11,13.28,13.28,0,0,1,14-3.46c5.32,1.66,8.53,5.4,9.65,10.88a11.71,11.71,0,0,1,.2,2.44,2.22,2.22,0,0,1-2.07,2.33,7.41,7.41,0,0,1-1,.07H97.79Z"/><path class="cls-1" d="M13.66,53A4,4,0,0,1,14,51.52L24.72,26,28,18.22A3.71,3.71,0,0,1,28.8,17a2.32,2.32,0,0,1,3.28-.14l.07.07a3.93,3.93,0,0,1,.62.73,1.91,1.91,0,0,1,.15,1.89c-4,9-7.57,18.16-11.33,27.25l-2.87,7a3.06,3.06,0,0,1-1.13,1.43A2.33,2.33,0,0,1,15,55.3,2.39,2.39,0,0,1,13.66,53Z"/><path class="cls-1" d="M36.54,39.29c-.86-2.08-1.67-4.06-2.49-6a3.3,3.3,0,0,1-.31-2,2.52,2.52,0,0,1,2.23-2,2.57,2.57,0,0,1,2.66,1.62l7.66,18.9c.33.8.69,1.58,1,2.4A2.58,2.58,0,0,1,43.14,55a2.87,2.87,0,0,1-.75-1.16c-1.22-3-2.46-6-3.65-9.07a.77.77,0,0,0-.91-.56c-2.62.2-5.25.26-7.89.27a2.6,2.6,0,0,1-2.65-1.73,2.56,2.56,0,0,1,1.58-3.26,2.82,2.82,0,0,1,.86-.14C32,39.28,34.2,39.29,36.54,39.29Z"/><path class="cls-1" d="M31.57,26A2.44,2.44,0,1,1,34,28.43h0A2.45,2.45,0,0,1,31.57,26Z"/><path class="cls-1" d="M67,33.74a2.42,2.42,0,0,1-2.44-2.4v0a2.44,2.44,0,0,1,4.88,0h0a2.41,2.41,0,0,1-2.39,2.43Z"/><path class="cls-1" d="M118.72,41.91a2.41,2.41,0,0,1-2.4,2.42h0a2.44,2.44,0,1,1,2.45-2.43Z"/><path class="cls-1" d="M84.12,41.9a2.43,2.43,0,0,1,2.41-2.45h0a2.44,2.44,0,0,1,0,4.88,2.41,2.41,0,0,1-2.42-2.4Z"/></svg>