<?xml version="1.0" encoding="UTF-8"?>
<svg width="24px" height="24px" viewBox="0 0 24 24" version="1.1" xmlns="http://www.w3.org/2000/svg" xmlns:xlink="http://www.w3.org/1999/xlink">
    <title>Icon/Report/Magnifier</title>
    <g id="Icon/Report/Magnifier" stroke="none" stroke-width="1" fill="none" fill-rule="evenodd">
        <g id="Icon---Comment" stroke-linecap="round" stroke-linejoin="round" transform="translate(1.000000, 1.000000)" fill="#1BBCB8" stroke="#1BBCB8">
            <rect id="Rectangle" x="0" y="0" width="22" height="22" rx="1"></rect>
        </g>
        <g id="Group" transform="translate(12.000000, 12.000000) scale(-1, 1) translate(-12.000000, -12.000000) translate(3.500000, 3.500000)" fill="#FFFFFF" fill-rule="nonzero">
            <path d="M5.82032051,11.2632991 C6.01611111,11.4590897 6.24038034,11.6513205 6.52516667,11.8649103 C9.08112393,13.7800983 12.7085897,13.5202308 14.9655214,11.2632991 C16.1865427,10.0422778 16.8593504,8.41899573 16.8593504,6.6889188 C16.8593504,4.95884188 16.1865427,3.33911966 14.9655214,2.11453846 C12.4451624,-0.405820513 8.34067949,-0.405820513 5.82032051,2.11453846 C3.56338889,4.37147009 3.30352137,7.9989359 5.2187094,10.5548932 C5.43229915,10.8396795 5.62452991,11.0639487 5.82032051,11.2632991 Z M10.3982607,1.86535043 C13.057453,1.86535043 15.2253889,4.0297265 15.2253889,6.6889188 C15.2253889,9.34811111 13.0610128,11.516047 10.3982607,11.516047 C7.73550855,11.516047 5.57113248,9.35167094 5.57113248,6.6889188 C5.57113248,4.0297265 7.73550855,1.86535043 10.3982607,1.86535043 Z" id="Shape"></path>
            <path d="M0.509055556,16.5745641 C0.697726496,16.763235 0.939794872,16.8557906 1.21034188,16.8593504 C1.47732906,16.8557906 1.72295726,16.7454359 1.90450855,16.5532051 L6.15494444,12.0286624 C6.15138462,12.0251026 6.14426496,12.0215427 6.14070513,12.0179829 C6.04102991,11.9396667 5.95203419,11.8649103 5.86659829,11.7901538 C5.84879915,11.7759145 5.831,11.7581154 5.81320085,11.7438761 C5.72776496,11.6691197 5.64588889,11.5908034 5.57113248,11.516047 C5.49281624,11.4377308 5.41805983,11.3594145 5.34330342,11.2739786 C5.32550427,11.2561795 5.31126496,11.2383803 5.29346581,11.2205812 C5.2187094,11.1351453 5.14751282,11.0461496 5.07275641,10.9500342 C5.06919658,10.9429145 5.06207692,10.9393547 5.05851709,10.932235 L0.533974359,15.1791111 C0.34174359,15.3606624 0.231388889,15.6062906 0.22782906,15.8732778 C0.220709402,16.1367051 0.323944444,16.389453 0.509055556,16.5745641 Z" id="Path"></path>
        </g>
    </g>
</svg>